<?xml version="1.0" encoding="UTF-8" standalone="no"?>
<!-- Created with Inkscape (http://www.inkscape.org/) -->

<svg
   xmlns:dc="http://purl.org/dc/elements/1.1/"
   xmlns:cc="http://creativecommons.org/ns#"
   xmlns:rdf="http://www.w3.org/1999/02/22-rdf-syntax-ns#"
   xmlns:svg="http://www.w3.org/2000/svg"
   xmlns="http://www.w3.org/2000/svg"
   xmlns:sodipodi="http://sodipodi.sourceforge.net/DTD/sodipodi-0.dtd"
   xmlns:inkscape="http://www.inkscape.org/namespaces/inkscape"
   width="300mm"
   height="200mm"
   viewBox="0 0 300 200"
   version="1.1"
   id="svg8"
   inkscape:version="0.92.5 (2060ec1f9f, 2020-04-08)"
   sodipodi:docname="tg-placeholder.svg">
  <defs
     id="defs2">
    <clipPath
       clipPathUnits="userSpaceOnUse"
       id="clipPath2999">
      <path
         inkscape:connector-curvature="0"
         d="M 0,612 792,612 792,0 0,0 0,612 z"
         id="path3001" />
    </clipPath>
  </defs>
  <sodipodi:namedview
     id="base"
     pagecolor="#ffffff"
     bordercolor="#666666"
     borderopacity="1.0"
     inkscape:pageopacity="0.0"
     inkscape:pageshadow="2"
     inkscape:zoom="0.49497475"
     inkscape:cx="-207.24613"
     inkscape:cy="347.51201"
     inkscape:document-units="mm"
     inkscape:current-layer="layer1"
     showgrid="false"
     inkscape:window-width="1848"
     inkscape:window-height="1016"
     inkscape:window-x="72"
     inkscape:window-y="27"
     inkscape:window-maximized="1"
     inkscape:pagecheckerboard="true"
     borderlayer="true" />
  <metadata
     id="metadata5">
    <rdf:RDF>
      <cc:Work
         rdf:about="">
        <dc:format>image/svg+xml</dc:format>
        <dc:type
           rdf:resource="http://purl.org/dc/dcmitype/StillImage" />
        <dc:title />
      </cc:Work>
    </rdf:RDF>
  </metadata>
  <g
     inkscape:label="Layer 1"
     inkscape:groupmode="layer"
     id="layer1"
     transform="translate(0,-97)">
    <rect
       style="opacity:1;fill:#ffffff;fill-opacity:1;stroke:none;stroke-width:1.85230875;stroke-miterlimit:4;stroke-dasharray:none;stroke-dashoffset:0;stroke-opacity:1;paint-order:normal"
       id="rect1021"
       width="300"
       height="200"
       x="0"
       y="97" />
    <g
       aria-label="No picture yet, sorry."
       style="font-style:normal;font-variant:normal;font-weight:normal;font-stretch:normal;font-size:25.39999962px;line-height:1.25;font-family:Oswald;-inkscape-font-specification:Oswald;font-variant-ligatures:normal;font-variant-caps:normal;font-variant-numeric:normal;font-feature-settings:normal;text-align:end;letter-spacing:0px;word-spacing:0px;writing-mode:lr-tb;text-anchor:end;fill:#646464;fill-opacity:1;stroke:none;stroke-width:0.26458332"
       id="text1015">
      <path
         d="m 55.404442,204.87399 v -20.574 h 1.9558 l 5.842,13.6652 v -13.6652 h 2.3876 v 20.574 h -1.8288 l -5.9182,-14.0462 v 14.0462 z"
         style="fill:#646464;fill-opacity:1;stroke-width:0.26458332"
         id="path1023" />
      <path
         d="m 72.608973,205.07719 q -1.6256,0 -2.5654,-0.6604 -0.9398,-0.6604 -1.3462,-1.8796 -0.381,-1.2192 -0.381,-2.8702 v -4.2672 q 0,-1.651 0.381,-2.8702 0.4064,-1.2192 1.3462,-1.8796 0.9398,-0.6604 2.5654,-0.6604 1.6256,0 2.54,0.6604 0.9398,0.6604 1.3208,1.8796 0.4064,1.2192 0.4064,2.8702 v 4.2672 q 0,1.651 -0.4064,2.8702 -0.381,1.2192 -1.3208,1.8796 -0.9144,0.6604 -2.54,0.6604 z m 0,-2.0066 q 0.7874,0 1.0922,-0.4572 0.3302,-0.4572 0.381,-1.1938 0.0762,-0.762 0.0762,-1.5748 v -4.5974 q 0,-0.8382 -0.0762,-1.5748 -0.0508,-0.7366 -0.381,-1.1938 -0.3048,-0.4826 -1.0922,-0.4826 -0.7874,0 -1.1176,0.4826 -0.3302,0.4572 -0.4064,1.1938 -0.0508,0.7366 -0.0508,1.5748 v 4.5974 q 0,0.8128 0.0508,1.5748 0.0762,0.7366 0.4064,1.1938 0.3302,0.4572 1.1176,0.4572 z"
         style="fill:#646464;fill-opacity:1;stroke-width:0.26458332"
         id="path1025" />
      <path
         d="m 85.189514,209.69999 v -19.5072 h 2.7178 v 1.1684 q 0.4826,-0.5588 1.1684,-0.9652 0.6858,-0.4064 1.6256,-0.4064 1.143,0 1.8034,0.6096 0.6858,0.5842 1.015999,1.4986 0.3302,0.889 0.4318,1.8288 0.1016,0.9144 0.1016,1.5748 v 3.556 q 0,1.5494 -0.3048,2.9464 -0.3048,1.3716 -1.117599,2.2352 -0.7874,0.8382 -2.2352,0.8382 -0.7874,0 -1.397,-0.381 -0.6096,-0.4064 -1.0922,-0.9144 v 5.9182 z m 4.6736,-6.7564 q 0.7112,0 1.016,-0.508 0.3048,-0.5334 0.381,-1.4224 0.0762,-0.889 0.0762,-1.9558 v -3.556 q 0,-0.9144 -0.1016,-1.6764 -0.1016,-0.7874 -0.4318,-1.2446 -0.3302,-0.4572 -1.0414,-0.4572 -0.5334,0 -1.016,0.2286 -0.4826,0.2286 -0.8382,0.5334 v 9.398 q 0.381,0.2794 0.8636,0.4826 0.4826,0.1778 1.0922,0.1778 z"
         style="fill:#646464;fill-opacity:1;stroke-width:0.26458332"
         id="path1027" />
      <path
         d="m 96.67825,204.87399 v -14.6812 h 2.7178 v 14.6812 z m 0,-16.8656 v -2.8448 h 2.7178 v 2.8448 z"
         style="fill:#646464;fill-opacity:1;stroke-width:0.26458332"
         id="path1029" />
      <path
         d="m 106.31795,205.07719 q -1.8034,0 -2.7432,-0.7112 -0.9144,-0.7366 -1.2446,-2.0574 -0.3048,-1.3208 -0.3048,-3.0734 v -3.3782 q 0,-1.8542 0.3302,-3.1496 0.3302,-1.3208 1.2446,-2.0066 0.9398,-0.7112 2.7178,-0.7112 1.6002,0 2.4638,0.5334 0.889,0.508 1.2192,1.5494 0.3302,1.016 0.3302,2.54 v 0.8636 h -2.4638 v -0.889 q 0,-0.9652 -0.127,-1.524 -0.127,-0.5588 -0.4572,-0.8128 -0.3302,-0.254 -0.9398,-0.254 -0.6604,0 -1.016,0.3048 -0.3556,0.3048 -0.4826,1.0414 -0.1016,0.7112 -0.1016,1.9558 v 4.6228 q 0,1.8796 0.3556,2.5146 0.3556,0.635 1.27,0.635 0.6858,0 0.9906,-0.3048 0.3302,-0.3302 0.4064,-0.9144 0.1016,-0.5842 0.1016,-1.3208 v -1.1938 h 2.4638 v 1.016 q 0,1.4732 -0.3556,2.54 -0.3302,1.0668 -1.2192,1.6256 -0.8636,0.5588 -2.4384,0.5588 z"
         style="fill:#646464;fill-opacity:1;stroke-width:0.26458332"
         id="path1031" />
      <path
         d="m 116.63432,205.07719 q -1.143,0 -1.8542,-0.4318 -0.6858,-0.4318 -1.016,-1.2192 -0.3048,-0.7874 -0.3048,-1.8542 v -9.5758 h -1.5494 v -1.8034 h 1.5494 v -4.2926 h 2.7178 v 4.2926 h 2.3622 v 1.8034 h -2.3622 v 9.398 q 0,0.8636 0.2794,1.2446 0.2794,0.3556 1.0668,0.3556 0.2032,0 0.4572,-0.0254 0.2794,-0.0254 0.5334,-0.0508 v 2.0066 q -0.508,0.0762 -0.9398,0.1016 -0.4318,0.0508 -0.9398,0.0508 z"
         style="fill:#646464;fill-opacity:1;stroke-width:0.26458332"
         id="path1033" />
      <path
         d="m 122.6692,205.07719 q -0.8636,0 -1.3462,-0.4572 -0.4826,-0.4572 -0.6858,-1.143 -0.1778,-0.6858 -0.1778,-1.397 v -11.8872 h 2.7178 v 11.0744 q 0,0.7874 0.2286,1.2446 0.2286,0.4318 0.9398,0.4318 0.4572,0 0.9398,-0.254 0.508,-0.2794 0.9652,-0.6604 v -11.8364 h 2.7178 v 14.6812 h -2.7178 v -1.4478 q -0.7112,0.6858 -1.6256,1.1684 -0.889,0.4826 -1.9558,0.4826 z"
         style="fill:#646464;fill-opacity:1;stroke-width:0.26458332"
         id="path1035" />
      <path
         d="m 131.79931,204.87399 v -14.6812 h 2.7178 v 2.0828 q 0.8128,-1.3462 1.6256,-1.8034 0.8128,-0.4572 1.6256,-0.4572 0.1016,0 0.1778,0 0.1016,0 0.254,0.0254 v 2.9972 q -0.3048,-0.127 -0.7112,-0.2032 -0.381,-0.1016 -0.7874,-0.1016 -0.635,0 -1.1684,0.3048 -0.508,0.2794 -1.016,1.1176 v 10.7188 z"
         style="fill:#646464;fill-opacity:1;stroke-width:0.26458332"
         id="path1037" />
      <path
         d="m 143.92305,205.07719 q -1.7272,0 -2.667,-0.6604 -0.9398,-0.6858 -1.3208,-1.9812 -0.3556,-1.3208 -0.3556,-3.2258 v -3.3528 q 0,-1.9558 0.381,-3.2512 0.381,-1.2954 1.3208,-1.9558 0.9652,-0.6604 2.6416,-0.6604 1.8542,0 2.7178,0.762 0.889,0.762 1.1684,2.2098 0.2794,1.4224 0.2794,3.429 v 1.1938 h -5.7912 v 2.9464 q 0,0.889 0.1524,1.4478 0.1778,0.5588 0.5334,0.8382 0.381,0.254 0.9652,0.254 0.6096,0 0.9144,-0.2794 0.3302,-0.3048 0.4318,-0.8382 0.127,-0.5588 0.127,-1.2954 v -0.889 h 2.6416 v 0.5588 q 0,2.2098 -0.9398,3.4798 -0.9398,1.27 -3.2004,1.27 z m -1.6256,-8.9662 h 3.1242 v -1.3208 q 0,-0.9144 -0.1016,-1.524 -0.1016,-0.635 -0.4318,-0.9398 -0.3048,-0.3302 -0.9906,-0.3302 -0.6604,0 -1.016,0.3048 -0.3302,0.3048 -0.4572,1.0414 -0.127,0.7112 -0.127,1.9812 z"
         style="fill:#646464;fill-opacity:1;stroke-width:0.26458332"
         id="path1039" />
      <path
         d="m 156.15037,208.55699 v -2.0828 q 0.9906,0 1.5748,-0.1016 0.5842,-0.0762 0.8382,-0.3302 0.254,-0.2286 0.254,-0.6604 0,-0.2286 -0.1778,-1.016 -0.1778,-0.7874 -0.381,-1.6764 l -2.9464,-12.4968 h 2.7432 l 1.9812,10.9728 1.905,-10.9728 h 2.7432 l -3.5052,15.494 q -0.2286,1.0668 -0.8382,1.6764 -0.6096,0.635 -1.5748,0.9144 -0.9398,0.2794 -2.286,0.2794 z"
         style="fill:#646464;fill-opacity:1;stroke-width:0.26458332"
         id="path1041" />
      <path
         d="m 170.41445,205.07719 q -1.7272,0 -2.667,-0.6604 -0.9398,-0.6858 -1.3208,-1.9812 -0.3556,-1.3208 -0.3556,-3.2258 v -3.3528 q 0,-1.9558 0.381,-3.2512 0.381,-1.2954 1.3208,-1.9558 0.9652,-0.6604 2.6416,-0.6604 1.8542,0 2.7178,0.762 0.889,0.762 1.1684,2.2098 0.2794,1.4224 0.2794,3.429 v 1.1938 h -5.7912 v 2.9464 q 0,0.889 0.1524,1.4478 0.1778,0.5588 0.5334,0.8382 0.381,0.254 0.9652,0.254 0.6096,0 0.9144,-0.2794 0.3302,-0.3048 0.4318,-0.8382 0.127,-0.5588 0.127,-1.2954 v -0.889 h 2.6416 v 0.5588 q 0,2.2098 -0.9398,3.4798 -0.9398,1.27 -3.2004,1.27 z m -1.6256,-8.9662 h 3.1242 v -1.3208 q 0,-0.9144 -0.1016,-1.524 -0.1016,-0.635 -0.4318,-0.9398 -0.3048,-0.3302 -0.9906,-0.3302 -0.6604,0 -1.016,0.3048 -0.3302,0.3048 -0.4572,1.0414 -0.127,0.7112 -0.127,1.9812 z"
         style="fill:#646464;fill-opacity:1;stroke-width:0.26458332"
         id="path1043" />
      <path
         d="m 180.97768,205.07719 q -1.143,0 -1.8542,-0.4318 -0.6858,-0.4318 -1.016,-1.2192 -0.3048,-0.7874 -0.3048,-1.8542 v -9.5758 h -1.5494 v -1.8034 h 1.5494 v -4.2926 h 2.7178 v 4.2926 h 2.3622 v 1.8034 h -2.3622 v 9.398 q 0,0.8636 0.2794,1.2446 0.2794,0.3556 1.0668,0.3556 0.2032,0 0.4572,-0.0254 0.2794,-0.0254 0.5334,-0.0508 v 2.0066 q -0.508,0.0762 -0.9398,0.1016 -0.4318,0.0508 -0.9398,0.0508 z"
         style="fill:#646464;fill-opacity:1;stroke-width:0.26458332"
         id="path1045" />
      <path
         d="m 184.98056,208.20139 -0.4318,-1.1684 q 0.6858,-0.2286 1.0668,-0.8128 0.4064,-0.5588 0.4064,-1.3462 h -1.4478 v -2.921 h 2.794 v 2.8702 q 0,1.3462 -0.5842,2.1336 -0.5842,0.8128 -1.8034,1.2446 z"
         style="fill:#646464;fill-opacity:1;stroke-width:0.26458332"
         id="path1047" />
      <path
         d="m 198.87476,205.07719 q -1.8034,0 -2.8956,-1.1176 -1.0922,-1.143 -1.2446,-2.9972 l 2.2606,-0.6858 q 0.2032,1.397 0.6858,2.1082 0.4826,0.6858 1.4224,0.6858 0.7366,0 1.1176,-0.4064 0.381,-0.4318 0.381,-1.143 0,-0.635 -0.2794,-1.143 -0.2794,-0.508 -0.9144,-1.0414 l -2.5146,-2.159 q -0.762,-0.6604 -1.2954,-1.4732 -0.508,-0.8128 -0.508,-2.1082 0,-1.1684 0.4572,-1.9558 0.4826,-0.8128 1.3208,-1.2192 0.8636,-0.4318 2.0066,-0.4318 1.7526,0 2.667,1.143 0.9398,1.1176 1.0668,2.7178 l -1.8288,0.6858 q -0.1016,-0.762 -0.3048,-1.3208 -0.2032,-0.5842 -0.5588,-0.889 -0.3556,-0.3302 -0.9398,-0.3302 -0.6604,0 -1.0668,0.4572 -0.381,0.4318 -0.381,1.0414 0,0.381 0.1524,0.762 0.1778,0.3556 0.5842,0.7112 l 2.5908,2.3876 q 0.5334,0.4826 0.9906,1.0414 0.4826,0.5588 0.7874,1.27 0.3048,0.7112 0.3048,1.651 0,1.2446 -0.508,2.0828 -0.508,0.8382 -1.4224,1.27 -0.9144,0.4064 -2.1336,0.4064 z"
         style="fill:#646464;fill-opacity:1;stroke-width:0.26458332"
         id="path1049" />
      <path
         d="m 208.98515,205.07719 q -1.6256,0 -2.5654,-0.6604 -0.9398,-0.6604 -1.3462,-1.8796 -0.381,-1.2192 -0.381,-2.8702 v -4.2672 q 0,-1.651 0.381,-2.8702 0.4064,-1.2192 1.3462,-1.8796 0.9398,-0.6604 2.5654,-0.6604 1.6256,0 2.54,0.6604 0.9398,0.6604 1.3208,1.8796 0.4064,1.2192 0.4064,2.8702 v 4.2672 q 0,1.651 -0.4064,2.8702 -0.381,1.2192 -1.3208,1.8796 -0.9144,0.6604 -2.54,0.6604 z m 0,-2.0066 q 0.7874,0 1.0922,-0.4572 0.3302,-0.4572 0.381,-1.1938 0.0762,-0.762 0.0762,-1.5748 v -4.5974 q 0,-0.8382 -0.0762,-1.5748 -0.0508,-0.7366 -0.381,-1.1938 -0.3048,-0.4826 -1.0922,-0.4826 -0.7874,0 -1.1176,0.4826 -0.3302,0.4572 -0.4064,1.1938 -0.0508,0.7366 -0.0508,1.5748 v 4.5974 q 0,0.8128 0.0508,1.5748 0.0762,0.7366 0.4064,1.1938 0.3302,0.4572 1.1176,0.4572 z"
         style="fill:#646464;fill-opacity:1;stroke-width:0.26458332"
         id="path1051" />
      <path
         d="m 215.83758,204.87399 v -14.6812 h 2.7178 v 2.0828 q 0.8128,-1.3462 1.6256,-1.8034 0.8128,-0.4572 1.6256,-0.4572 0.1016,0 0.1778,0 0.1016,0 0.254,0.0254 v 2.9972 q -0.3048,-0.127 -0.7112,-0.2032 -0.381,-0.1016 -0.7874,-0.1016 -0.635,0 -1.1684,0.3048 -0.508,0.2794 -1.016,1.1176 v 10.7188 z"
         style="fill:#646464;fill-opacity:1;stroke-width:0.26458332"
         id="path1053" />
      <path
         d="m 223.97352,204.87399 v -14.6812 h 2.7178 v 2.0828 q 0.8128,-1.3462 1.6256,-1.8034 0.8128,-0.4572 1.6256,-0.4572 0.1016,0 0.1778,0 0.1016,0 0.254,0.0254 v 2.9972 q -0.3048,-0.127 -0.7112,-0.2032 -0.381,-0.1016 -0.7874,-0.1016 -0.635,0 -1.1684,0.3048 -0.508,0.2794 -1.016,1.1176 v 10.7188 z"
         style="fill:#646464;fill-opacity:1;stroke-width:0.26458332"
         id="path1055" />
      <path
         d="m 231.80466,208.55699 v -2.0828 q 0.9906,0 1.5748,-0.1016 0.5842,-0.0762 0.8382,-0.3302 0.254,-0.2286 0.254,-0.6604 0,-0.2286 -0.1778,-1.016 -0.1778,-0.7874 -0.381,-1.6764 l -2.9464,-12.4968 h 2.7432 l 1.9812,10.9728 1.905,-10.9728 h 2.7432 l -3.5052,15.494 q -0.2286,1.0668 -0.8382,1.6764 -0.6096,0.635 -1.5748,0.9144 -0.9398,0.2794 -2.286,0.2794 z"
         style="fill:#646464;fill-opacity:1;stroke-width:0.26458332"
         id="path1057" />
      <path
         d="m 241.87774,204.87399 v -3.0226 h 2.7178 v 3.0226 z"
         style="fill:#646464;fill-opacity:1;stroke-width:0.26458332"
         id="path1059" />
    </g>
  </g>
</svg>
