<?xml version="1.0" encoding="UTF-8" standalone="no"?>
<!-- Created with Inkscape (http://www.inkscape.org/) -->

<svg
   xmlns:dc="http://purl.org/dc/elements/1.1/"
   xmlns:cc="http://creativecommons.org/ns#"
   xmlns:rdf="http://www.w3.org/1999/02/22-rdf-syntax-ns#"
   xmlns:svg="http://www.w3.org/2000/svg"
   xmlns="http://www.w3.org/2000/svg"
   xmlns:sodipodi="http://sodipodi.sourceforge.net/DTD/sodipodi-0.dtd"
   xmlns:inkscape="http://www.inkscape.org/namespaces/inkscape"
   width="300mm"
   height="200mm"
   viewBox="0 0 300 200"
   version="1.1"
   id="svg8"
   inkscape:version="0.92.4 (5da689c313, 2019-01-14)"
   sodipodi:docname="tg-placeholder.svg">
  <defs
     id="defs2">
    <clipPath
       clipPathUnits="userSpaceOnUse"
       id="clipPath2999">
      <path
         inkscape:connector-curvature="0"
         d="M 0,612 792,612 792,0 0,0 0,612 z"
         id="path3001" />
    </clipPath>
  </defs>
  <sodipodi:namedview
     id="base"
     pagecolor="#ffffff"
     bordercolor="#666666"
     borderopacity="1.0"
     inkscape:pageopacity="0.0"
     inkscape:pageshadow="2"
     inkscape:zoom="0.49497475"
     inkscape:cx="219.03824"
     inkscape:cy="355.59323"
     inkscape:document-units="mm"
     inkscape:current-layer="layer1"
     showgrid="false"
     inkscape:window-width="1850"
     inkscape:window-height="1016"
     inkscape:window-x="70"
     inkscape:window-y="27"
     inkscape:window-maximized="1"
     inkscape:pagecheckerboard="true"
     borderlayer="true" />
  <metadata
     id="metadata5">
    <rdf:RDF>
      <cc:Work
         rdf:about="">
        <dc:format>image/svg+xml</dc:format>
        <dc:type
           rdf:resource="http://purl.org/dc/dcmitype/StillImage" />
        <dc:title></dc:title>
      </cc:Work>
    </rdf:RDF>
  </metadata>
  <g
     inkscape:label="Layer 1"
     inkscape:groupmode="layer"
     id="layer1"
     transform="translate(0,-97)">
    <rect
       style="opacity:1;fill:#ffffff;fill-opacity:1;stroke:none;stroke-width:1.85230875;stroke-miterlimit:4;stroke-dasharray:none;stroke-dashoffset:0;stroke-opacity:1;paint-order:normal"
       id="rect1021"
       width="300"
       height="200"
       x="0"
       y="97" />
    <g
       transform="matrix(1.6098275,0,0,1.6098275,-453.68532,-660.01129)"
       id="layer1-1"
       inkscape:label="Layer 1"
       style="fill:#e6e6e6">
      <g
         id="g2993"
         inkscape:label="TG_STAMP_SWE"
         transform="matrix(1.25,0,0,-1.25,-121.20281,915.09259)"
         style="fill:#e6e6e6">
        <g
           id="g2995"
           style="fill:#e6e6e6">
          <g
             id="g2997"
             clip-path="url(#clipPath2999)"
             style="fill:#e6e6e6">
            <g
               style="fill:#e6e6e6;fill-opacity:1"
               id="g4206">
              <g
                 transform="translate(396.9629,265.0762)"
                 id="g3003"
                 style="fill:#e6e6e6;fill-opacity:1">
                <path
                   id="path3005"
                   style="fill:#e6e6e6;fill-opacity:1;fill-rule:nonzero;stroke:none"
                   d="m 0,0 c -22.706,0 -41.112,18.406 -41.112,41.112 0,22.706 18.406,41.113 41.112,41.113 22.705,0 41.111,-18.407 41.111,-41.113 C 41.111,18.406 22.705,0 0,0 m 42.636,38.039 c -0.544,0.861 -0.496,2.237 0.107,3.057 0.604,0.821 0.558,2.128 -0.101,2.904 -0.66,0.777 -0.803,2.147 -0.321,3.044 0.483,0.896 0.256,2.185 -0.504,2.863 -0.759,0.679 -1.092,2.015 -0.74,2.97 0.353,0.955 -0.052,2.199 -0.898,2.765 -0.847,0.566 -1.364,1.842 -1.147,2.837 0.217,0.995 -0.357,2.169 -1.275,2.611 -0.918,0.442 -1.607,1.635 -1.529,2.651 0.077,1.016 -0.656,2.101 -1.626,2.411 -0.971,0.31 -1.819,1.395 -1.884,2.411 -0.066,1.016 -0.94,1.988 -1.944,2.16 -1.003,0.172 -1.995,1.129 -2.203,2.126 -0.208,0.997 -1.21,1.838 -2.226,1.868 -1.017,0.031 -2.131,0.84 -2.476,1.799 -0.345,0.959 -1.455,1.652 -2.467,1.541 -1.011,-0.112 -2.227,0.535 -2.701,1.437 -0.473,0.902 -1.669,1.434 -2.655,1.182 -0.986,-0.251 -2.28,0.219 -2.875,1.046 -0.595,0.826 -1.852,1.186 -2.794,0.8 -0.942,-0.386 -2.289,-0.1 -2.992,0.637 -0.703,0.737 -1.999,0.919 -2.878,0.405 -0.879,-0.513 -2.254,-0.417 -3.054,0.214 -0.801,0.631 -2.11,0.631 -2.909,0 -0.798,-0.631 -2.171,-0.727 -3.05,-0.214 -0.879,0.514 -2.175,0.332 -2.879,-0.405 -0.705,-0.737 -2.052,-1.023 -2.994,-0.637 -0.942,0.386 -2.2,0.026 -2.794,-0.8 -0.595,-0.827 -1.889,-1.297 -2.875,-1.046 -0.986,0.252 -2.181,-0.28 -2.655,-1.182 -0.474,-0.902 -1.69,-1.549 -2.702,-1.437 -1.012,0.111 -2.121,-0.582 -2.466,-1.541 -0.345,-0.959 -1.46,-1.768 -2.477,-1.799 -1.017,-0.03 -2.019,-0.871 -2.226,-1.868 -0.207,-0.997 -1.197,-1.954 -2.201,-2.126 -1.003,-0.172 -1.879,-1.144 -1.945,-2.16 -0.067,-1.016 -0.914,-2.101 -1.884,-2.411 -0.97,-0.31 -1.701,-1.395 -1.625,-2.411 0.077,-1.016 -0.612,-2.209 -1.53,-2.651 -0.918,-0.442 -1.492,-1.616 -1.275,-2.611 0.217,-0.995 -0.299,-2.271 -1.146,-2.837 -0.847,-0.566 -1.252,-1.81 -0.898,-2.765 0.353,-0.955 0.02,-2.291 -0.74,-2.97 -0.761,-0.678 -0.988,-1.967 -0.505,-2.863 0.483,-0.897 0.339,-2.267 -0.32,-3.044 -0.659,-0.776 -0.705,-2.083 -0.103,-2.904 0.603,-0.82 0.651,-2.196 0.108,-3.057 -0.544,-0.861 -0.406,-2.162 0.305,-2.892 0.711,-0.729 0.95,-2.085 0.53,-3.013 -0.42,-0.928 -0.104,-2.197 0.701,-2.82 0.806,-0.623 1.232,-1.932 0.947,-2.91 -0.285,-0.978 0.206,-2.191 1.09,-2.697 0.884,-0.505 1.488,-1.742 1.341,-2.75 -0.147,-1.008 0.507,-2.141 1.453,-2.518 0.946,-0.376 1.716,-1.518 1.711,-2.537 -0.004,-1.017 0.801,-2.048 1.791,-2.289 0.99,-0.242 1.911,-1.264 2.047,-2.273 0.136,-1.01 1.077,-1.918 2.091,-2.02 1.013,-0.102 2.068,-0.988 2.344,-1.968 0.276,-0.981 1.334,-1.75 2.351,-1.709 1.018,0.041 2.186,-0.689 2.596,-1.622 0.41,-0.932 1.565,-1.546 2.566,-1.365 1.001,0.182 2.258,-0.378 2.794,-1.244 0.536,-0.866 1.766,-1.312 2.733,-0.993 0.967,0.319 2.291,-0.061 2.941,-0.844 0.651,-0.783 1.931,-1.055 2.844,-0.604 0.914,0.451 2.277,0.259 3.03,-0.426 0.753,-0.686 2.058,-0.776 2.899,-0.203 0.842,0.573 2.219,0.573 3.06,0 0.843,-0.573 2.148,-0.483 2.902,0.203 0.754,0.685 2.117,0.877 3.031,0.426 0.914,-0.451 2.193,-0.179 2.844,0.604 0.65,0.783 1.973,1.163 2.941,0.844 0.968,-0.319 2.196,0.127 2.732,0.993 0.535,0.866 1.792,1.426 2.794,1.244 1.001,-0.181 2.156,0.433 2.565,1.365 0.409,0.933 1.577,1.663 2.596,1.622 1.018,-0.041 2.078,0.728 2.354,1.709 0.277,0.98 1.332,1.866 2.345,1.968 1.013,0.102 1.953,1.01 2.089,2.02 0.135,1.009 1.056,2.031 2.047,2.273 0.99,0.241 1.796,1.272 1.792,2.289 -0.004,1.019 0.765,2.161 1.711,2.537 0.945,0.377 1.598,1.51 1.452,2.518 -0.147,1.008 0.456,2.245 1.34,2.75 0.883,0.506 1.374,1.719 1.089,2.697 -0.284,0.978 0.143,2.287 0.949,2.91 0.805,0.623 1.121,1.892 0.701,2.82 -0.42,0.928 -0.182,2.284 0.53,3.013 0.712,0.73 0.849,2.031 0.305,2.892"
                   inkscape:connector-curvature="0" />
              </g>
              <g
                 transform="translate(436.8008,306.189)"
                 id="g3007"
                 style="fill:#e6e6e6;fill-opacity:1;stroke:#000000;stroke-opacity:1">
                <path
                   style="color:#000000;font-style:normal;font-variant:normal;font-weight:normal;font-stretch:normal;font-size:medium;line-height:normal;font-family:sans-serif;text-indent:0;text-align:start;text-decoration:none;text-decoration-line:none;text-decoration-style:solid;text-decoration-color:#000000;letter-spacing:normal;word-spacing:normal;text-transform:none;writing-mode:lr-tb;direction:ltr;baseline-shift:baseline;text-anchor:start;white-space:normal;clip-rule:nonzero;display:inline;overflow:visible;visibility:visible;opacity:1;isolation:auto;mix-blend-mode:normal;color-interpolation:sRGB;color-interpolation-filters:linearRGB;solid-color:#000000;solid-opacity:1;fill:#e6e6e6;fill-opacity:1;fill-rule:nonzero;stroke:none;stroke-width:0.63200003;stroke-linecap:butt;stroke-linejoin:miter;stroke-miterlimit:4;stroke-dasharray:none;stroke-dashoffset:0;stroke-opacity:1;color-rendering:auto;image-rendering:auto;shape-rendering:auto;text-rendering:auto;enable-background:accumulate"
                   d="m -39.837891,-40.154297 c -22.174752,0 -40.154297,17.979535 -40.154297,40.154297 0,22.172778 17.979535,40.154297 40.154297,40.154297 22.175755,0 40.15429725,-17.981558 40.15429725,-40.154297 0,-22.174724 -17.97855225,-40.154297 -40.15429725,-40.154297 z m 0,0.630859 c 21.834256,0 39.52148475,17.690162 39.52148475,39.523438 0,21.831261 -17.68723875,39.521484 -39.52148475,39.521484 -21.833237,0 -39.523437,-17.690262 -39.523437,-39.521484 0,-21.833238 17.69019,-39.523438 39.523437,-39.523438 z"
                   id="path3009"
                   inkscape:connector-curvature="0" />
              </g>
              <g
                 transform="translate(364.2666,292.4385)"
                 id="g3011"
                 style="fill:#e6e6e6;fill-opacity:1">
                <path
                   id="path3013"
                   style="fill:#e6e6e6;fill-opacity:1;fill-rule:nonzero;stroke:none"
                   d="M 0,0 6.199,2.688 6.527,1.93 0.331,-0.758 1.217,-2.806 0.574,-3.084 -1.53,1.769 -0.886,2.046 Z"
                   inkscape:connector-curvature="0" />
              </g>
              <g
                 transform="translate(365.8687,299.6465)"
                 id="g3015"
                 style="fill:#e6e6e6;fill-opacity:1">
                <path
                   id="path3017"
                   style="fill:#e6e6e6;fill-opacity:1;fill-rule:nonzero;stroke:none"
                   d="M 0,0 -0.395,2.226 -3.987,0.498 -3.967,0.386 Z M 3.298,-1.217 -4.44,-0.264 -4.654,0.945 2.282,4.504 2.434,3.648 0.26,2.551 0.727,-0.08 3.145,-0.364 Z m -8.112,0.227 -0.955,-0.17 -0.159,0.894 0.955,0.169 z m -0.285,1.605 -0.955,-0.17 -0.158,0.895 0.955,0.17 z"
                   inkscape:connector-curvature="0" />
              </g>
              <g
                 transform="translate(364.0933,307.3535)"
                 id="g3019"
                 style="fill:#e6e6e6;fill-opacity:1">
                <path
                   id="path3021"
                   style="fill:#e6e6e6;fill-opacity:1;fill-rule:nonzero;stroke:none"
                   d="M 0,0 0.114,1.492 C 0.202,2.625 -0.175,3.254 -1.111,3.325 -2.109,3.402 -2.46,2.745 -2.541,1.686 L -2.655,0.204 Z m 4.013,-1.136 -7.431,0.57 0.183,2.387 c 0.124,1.606 0.91,2.426 2.146,2.33 1.049,-0.079 1.6,-0.733 1.822,-1.629 L 4.394,3.825 4.324,2.929 0.834,1.686 0.701,-0.054 4.075,-0.313 Z"
                   inkscape:connector-curvature="0" />
              </g>
              <g
                 transform="translate(369.0723,313.8887)"
                 id="g3023"
                 style="fill:#e6e6e6;fill-opacity:1">
                <path
                   id="path3025"
                   style="fill:#e6e6e6;fill-opacity:1;fill-rule:nonzero;stroke:none"
                   d="m 0,0 -7.012,2.53 0.403,1.116 6.505,1.111 0.013,0.039 -5.4,1.948 0.253,0.701 L 1.773,4.914 1.542,4.272 -5.995,2.975 -6.003,2.955 0.253,0.699 Z"
                   inkscape:connector-curvature="0" />
              </g>
              <g
                 transform="translate(369.7256,327.4893)"
                 id="g3027"
                 style="fill:#e6e6e6;fill-opacity:1">
                <path
                   id="path3029"
                   style="fill:#e6e6e6;fill-opacity:1;fill-rule:nonzero;stroke:none"
                   d="m 0,0 c -0.699,0.259 -1.509,0.105 -2.056,-0.683 -0.495,-0.712 -0.451,-1.371 0.154,-1.804 1.328,-0.947 3.391,2.747 5.357,1.382 0.89,-0.618 1.449,-1.748 0.366,-3.308 C 2.892,-5.751 1.663,-5.677 0.71,-5.493 l 0.209,0.771 c 0.815,-0.201 1.727,-0.154 2.351,0.743 0.623,0.899 0.459,1.678 -0.168,2.113 -1.559,1.083 -3.491,-2.676 -5.424,-1.334 -0.881,0.612 -1.064,1.832 -0.3,2.934 0.661,0.95 1.679,1.349 2.911,0.971 z"
                   inkscape:connector-curvature="0" />
              </g>
              <g
                 transform="translate(373.4224,334.1812)"
                 id="g3031"
                 style="fill:#e6e6e6;fill-opacity:1">
                <path
                   id="path3033"
                   style="fill:#e6e6e6;fill-opacity:1;fill-rule:nonzero;stroke:none"
                   d="M 0,0 3.76,-4.057 C 4.714,-5.087 4.695,-5.948 3.878,-6.706 3.241,-7.295 2.569,-7.299 1.938,-7.194 l 0.181,0.715 c 0.434,-0.118 0.926,-0.042 1.267,0.274 0.371,0.344 0.498,0.799 -0.085,1.428 l -3.907,4.216 z"
                   inkscape:connector-curvature="0" />
              </g>
              <g
                 transform="translate(379.166,338.8154)"
                 id="g3035"
                 style="fill:#e6e6e6;fill-opacity:1">
                <path
                   id="path3037"
                   style="fill:#e6e6e6;fill-opacity:1;fill-rule:nonzero;stroke:none"
                   d="M 0,0 -0.486,0.84 0.301,1.295 0.786,0.457 Z m 3.36,-6.546 c 1.135,0.657 1.298,1.921 0.238,3.752 -1.059,1.831 -2.237,2.318 -3.371,1.661 -1.135,-0.657 -1.297,-1.92 -0.237,-3.751 1.059,-1.83 2.236,-2.319 3.37,-1.662 m -3.485,6.022 c 1.582,0.915 3.192,0.296 4.438,-1.856 1.246,-2.153 0.98,-3.857 -0.6,-4.774 -1.581,-0.914 -3.192,-0.296 -4.438,1.857 -1.246,2.152 -0.98,3.857 0.6,4.773 m -1.287,-0.292 -0.485,0.839 0.787,0.455 0.485,-0.84 z"
                   inkscape:connector-curvature="0" />
              </g>
              <g
                 transform="translate(395.8638,339.3452)"
                 id="g3039"
                 style="fill:#e6e6e6;fill-opacity:1">
                <path
                   id="path3041"
                   style="fill:#e6e6e6;fill-opacity:1;fill-rule:nonzero;stroke:none"
                   d="M 0,0 0.464,-3.55 -0.211,-3.639 -0.3,-2.964 -0.321,-2.966 c -0.309,-0.571 -1.013,-0.925 -1.832,-1.031 -1.679,-0.22 -3.044,0.831 -3.382,3.42 -0.34,2.589 0.711,3.955 2.389,4.174 1.249,0.164 2.289,-0.305 2.945,-1.821 L -0.958,1.52 C -1.48,2.648 -2.154,3.019 -3.014,2.906 -4.099,2.765 -5.025,1.894 -4.716,-0.47 c 0.309,-2.365 1.428,-2.967 2.513,-2.825 1.209,0.157 1.675,0.968 1.557,1.869 l -0.081,0.624 -1.669,-0.218 -0.091,0.696 z"
                   inkscape:connector-curvature="0" />
              </g>
              <g
                 transform="translate(400.3359,338.6333)"
                 id="g3043"
                 style="fill:#e6e6e6;fill-opacity:1">
                <path
                   id="path3045"
                   style="fill:#e6e6e6;fill-opacity:1;fill-rule:nonzero;stroke:none"
                   d="M 0,0 2.244,-0.278 1.648,3.666 1.536,3.68 Z M -2.135,-2.795 1.055,4.322 2.273,4.172 3.635,-3.508 2.774,-3.402 2.363,-1 -0.29,-0.673 -1.273,-2.902 Z"
                   inkscape:connector-curvature="0" />
              </g>
              <g
                 transform="translate(408.2178,338.0537)"
                 id="g3047"
                 style="fill:#e6e6e6;fill-opacity:1">
                <path
                   id="path3049"
                   style="fill:#e6e6e6;fill-opacity:1;fill-rule:nonzero;stroke:none"
                   d="M 0,0 1.393,-0.545 C 2.45,-0.96 3.162,-0.784 3.505,0.091 3.87,1.023 3.345,1.549 2.354,1.938 L 0.972,2.48 Z M -2.259,-3.503 0.459,3.434 2.688,2.561 C 4.187,1.974 4.74,0.982 4.288,-0.171 3.904,-1.152 3.118,-1.488 2.196,-1.436 l 0.176,-3.882 -0.836,0.327 -0.168,3.701 -1.623,0.637 -1.236,-3.152 z"
                   inkscape:connector-curvature="0" />
              </g>
              <g
                 transform="translate(416.3926,338.0508)"
                 id="g3051"
                 style="fill:#e6e6e6;fill-opacity:1">
                <path
                   id="path3053"
                   style="fill:#e6e6e6;fill-opacity:1;fill-rule:nonzero;stroke:none"
                   d="m 0,0 0.678,-0.473 -1.994,-6.065 0.016,-0.012 5.017,3.954 0.685,-0.48 -6.167,-4.787 -0.618,0.432 z"
                   inkscape:connector-curvature="0" />
              </g>
              <g
                 transform="translate(426.5938,328.9922)"
                 id="g3055"
                 style="fill:#e6e6e6;fill-opacity:1">
                <path
                   id="path3057"
                   style="fill:#e6e6e6;fill-opacity:1;fill-rule:nonzero;stroke:none"
                   d="M 0,0 -0.525,-0.465 -2.942,2.263 -4.813,0.604 -3.094,-1.334 -3.62,-1.8 -5.338,0.139 -7.471,-1.75 -4.918,-4.633 -5.442,-5.1 l -3.103,3.502 5.58,4.945 z"
                   inkscape:connector-curvature="0" />
              </g>
              <g
                 transform="translate(426.4688,323.082)"
                 id="g3059"
                 style="fill:#e6e6e6;fill-opacity:1">
                <path
                   id="path3061"
                   style="fill:#e6e6e6;fill-opacity:1;fill-rule:nonzero;stroke:none"
                   d="m 0,0 0.686,-1.33 c 0.521,-1.01 1.169,-1.348 2.006,-0.918 0.89,0.459 0.844,1.202 0.358,2.147 L 2.367,1.221 Z M -4.014,-1.139 2.613,2.277 3.711,0.148 C 4.449,-1.285 4.209,-2.396 3.107,-2.963 2.171,-3.446 1.359,-3.178 0.701,-2.53 l -2.433,-3.032 -0.413,0.799 2.321,2.891 -0.799,1.551 -3.011,-1.553 z"
                   inkscape:connector-curvature="0" />
              </g>
              <g
                 transform="translate(433.0439,315.7925)"
                 id="g3063"
                 style="fill:#e6e6e6;fill-opacity:1">
                <path
                   id="path3065"
                   style="fill:#e6e6e6;fill-opacity:1;fill-rule:nonzero;stroke:none"
                   d="m 0,0 -7.188,-1.989 -0.221,0.797 7.189,1.988 z"
                   inkscape:connector-curvature="0" />
              </g>
              <g
                 transform="translate(429.8584,307.0391)"
                 id="g3067"
                 style="fill:#e6e6e6;fill-opacity:1">
                <path
                   id="path3069"
                   style="fill:#e6e6e6;fill-opacity:1;fill-rule:nonzero;stroke:none"
                   d="m 0,0 -0.036,-2.26 3.857,1.013 v 0.113 z m -3.007,1.823 7.416,-2.408 -0.019,-1.228 -7.488,-2.174 0.014,0.866 2.344,0.665 0.041,2.674 -2.322,0.739 z"
                   inkscape:connector-curvature="0" />
              </g>
              <g
                 transform="translate(427.1885,299.668)"
                 id="g3071"
                 style="fill:#e6e6e6;fill-opacity:1">
                <path
                   id="path3073"
                   style="fill:#e6e6e6;fill-opacity:1;fill-rule:nonzero;stroke:none"
                   d="M 0,0 -1.11,0.234 -0.901,1.225 0.21,0.99 Z"
                   inkscape:connector-curvature="0" />
              </g>
              <g
                 transform="translate(429.3574,295.7588)"
                 id="g3075"
                 style="fill:#e6e6e6;fill-opacity:1">
                <path
                   id="path3077"
                   style="fill:#e6e6e6;fill-opacity:1;fill-rule:nonzero;stroke:none"
                   d="M 0,0 -0.517,-1.349 C -0.963,-2.516 -0.54,-3.196 0.049,-3.423 0.83,-3.721 1.357,-3.437 1.697,-2.552 l 0.634,1.658 z m -3.314,1.27 -0.554,-1.447 c -0.435,-1.136 -0.263,-1.842 0.603,-2.174 0.886,-0.34 1.681,0.174 2.101,1.272 l 0.509,1.329 z m 6.595,-1.644 -0.98,-2.563 c -0.467,-1.213 -1.518,-1.651 -2.46,-1.289 -0.762,0.291 -1.182,0.839 -1.15,1.788 L -1.332,-2.44 c -0.491,-0.706 -1.399,-1 -2.267,-0.668 -1.041,0.399 -1.624,1.352 -0.901,3.241 l 0.826,2.157 z"
                   inkscape:connector-curvature="0" />
              </g>
              <g
                 transform="translate(423.3193,290.2617)"
                 id="g3079"
                 style="fill:#e6e6e6;fill-opacity:1">
                <path
                   id="path3081"
                   style="fill:#e6e6e6;fill-opacity:1;fill-rule:nonzero;stroke:none"
                   d="M 0,0 -0.972,0.586 -0.45,1.453 0.522,0.867 Z"
                   inkscape:connector-curvature="0" />
              </g>
              <g
                 transform="translate(390.4458,310.7852)"
                 id="g3083"
                 style="fill:#e6e6e6;fill-opacity:1">
                <path
                   id="path3085"
                   style="fill:#e6e6e6;fill-opacity:1;fill-rule:nonzero;stroke:none"
                   d="M 0,0 C 0,5.423 1.696,8.755 4.893,9.844 V -9.32 C 1.844,-8.345 0,-5.105 0,0 m 21.941,10.099 0.422,0.452 c -4.087,4.053 -9.569,6.908 -15.569,6.908 -5.966,0 -11.447,-2.819 -15.564,-6.908 l 0.456,-0.452 c 4.096,3.203 8.176,4.933 13.207,5.277 V 10.663 C -0.305,9.756 -3.728,5.477 -3.728,-0.424 c 0,-2.91 0.88,-5.182 2.727,-7.06 1.584,-1.612 3.592,-2.563 5.891,-2.844 -0.024,-4.91 -0.463,-6.274 -6.058,-6.942 v -0.648 h 15.927 v 0.648 c -5.658,0.676 -6.043,2.063 -6.058,7.112 1.959,0.449 3.325,1.374 4.572,1.974 0.575,0.274 1.363,0.426 2.332,0.455 -0.09,0.668 -0.15,1.485 -0.15,2.426 0,1.606 -0.032,2.364 0.757,2.847 0.788,0.486 1.546,0.304 1.546,0.758 0,0.122 -0.212,0.304 -0.577,0.304 -0.271,0 -1.453,-0.182 -3.514,-0.182 -1.97,0 -3.121,0.182 -3.486,0.182 -0.453,0 -0.695,-0.152 -0.695,-0.333 0,-0.455 0.756,-0.273 1.697,-0.606 0.635,-0.244 1.061,-1.031 1.061,-2.304 0,-2.795 -1.114,-4.359 -3.544,-4.83 V 10.136 C 10.89,9.78 12.339,8.44 13.212,6 c 0.303,-0.819 0.243,-1.424 0.606,-1.424 0.182,0 0.273,0.121 0.273,0.363 l 0.184,4.456 c 0.028,0.666 0,0.908 -0.305,0.908 -0.364,0 -0.392,-0.969 -0.847,-0.969 -0.553,0 -1.897,1.031 -4.423,1.387 v 4.655 c 5.037,-0.344 9.142,-2.074 13.241,-5.277"
                   inkscape:connector-curvature="0" />
              </g>
              <g
                 transform="translate(389.603,284.7881)"
                 id="g3087"
                 style="fill:#e6e6e6;fill-opacity:1">
                <path
                   id="path3089"
                   style="fill:#e6e6e6;fill-opacity:1;fill-rule:nonzero;stroke:none"
                   d="M 0,0 V 0.435 H 0.876 V 4.547 L -0.098,4.448 v 0.33 c 0.35,0.105 0.749,0.21 0.974,0.35 H 1.38 V 0.435 H 2.242 V 0 Z"
                   inkscape:connector-curvature="0" />
              </g>
              <g
                 transform="translate(394.9663,289.4824)"
                 id="g3091"
                 style="fill:#e6e6e6;fill-opacity:1">
                <path
                   id="path3093"
                   style="fill:#e6e6e6;fill-opacity:1;fill-rule:nonzero;stroke:none"
                   d="m 0,0 c -0.553,0 -1.1,-0.238 -1.1,-0.799 0,-0.547 0.687,-0.855 1.1,-0.974 0.561,0.14 1.1,0.484 1.1,0.974 C 1.1,-0.238 0.554,0 0,0 m 0,-4.33 c 0.917,0 1.311,0.504 1.311,0.953 0,0.588 -0.603,0.883 -1.402,1.148 -0.616,-0.265 -1.219,-0.56 -1.219,-1.148 0,-0.449 0.393,-0.953 1.31,-0.953 m 0,-0.434 c -1.24,0 -1.842,0.616 -1.842,1.387 0,0.645 0.504,1.093 1.107,1.373 v 0.014 c -0.561,0.211 -0.897,0.637 -0.897,1.163 0,0.827 0.7,1.261 1.632,1.261 0.932,0 1.632,-0.434 1.632,-1.261 0,-0.526 -0.336,-0.952 -0.897,-1.163 V -2.004 C 1.338,-2.221 1.843,-2.69 1.843,-3.377 1.843,-4.148 1.24,-4.764 0,-4.764"
                   inkscape:connector-curvature="0" />
              </g>
              <g
                 transform="translate(397.6602,289.4121)"
                 id="g3095"
                 style="fill:#e6e6e6;fill-opacity:1">
                <path
                   id="path3097"
                   style="fill:#e6e6e6;fill-opacity:1;fill-rule:nonzero;stroke:none"
                   d="M 0,0 V 0.434 H 3.209 V 0.126 L 1.072,-4.624 H 0.483 L 2.564,0 Z"
                   inkscape:connector-curvature="0" />
              </g>
              <g
                 transform="translate(402.0986,285.9922)"
                 id="g3099"
                 style="fill:#e6e6e6;fill-opacity:1">
                <path
                   id="path3101"
                   style="fill:#e6e6e6;fill-opacity:1;fill-rule:nonzero;stroke:none"
                   d="m 0,0 c 0.386,-0.518 0.862,-0.84 1.388,-0.84 0.742,0 1.19,0.379 1.19,0.981 0,0.708 -0.421,1.134 -1.429,1.134 H 0.651 v 0.436 h 0.302 c 1.009,0 1.443,0.322 1.443,0.945 0,0.512 -0.442,0.834 -0.924,0.834 -0.618,0 -0.883,-0.266 -1.219,-0.701 l -0.414,0.28 c 0.344,0.477 0.82,0.855 1.633,0.855 0.896,0 1.457,-0.463 1.457,-1.261 C 2.929,2.054 2.536,1.696 2.144,1.543 2.942,1.234 3.11,0.659 3.11,0.197 c 0,-0.861 -0.665,-1.47 -1.722,-1.47 -0.967,0 -1.555,0.601 -1.794,0.994 z"
                   inkscape:connector-curvature="0" />
              </g>
              <g
                 transform="translate(424.627,306.3984)"
                 id="g3103"
                 style="fill:#e6e6e6;fill-opacity:1;stroke:#000000;stroke-opacity:1">
                <path
                   style="color:#000000;font-style:normal;font-variant:normal;font-weight:normal;font-stretch:normal;font-size:medium;line-height:normal;font-family:sans-serif;text-indent:0;text-align:start;text-decoration:none;text-decoration-line:none;text-decoration-style:solid;text-decoration-color:#000000;letter-spacing:normal;word-spacing:normal;text-transform:none;writing-mode:lr-tb;direction:ltr;baseline-shift:baseline;text-anchor:start;white-space:normal;clip-rule:nonzero;display:inline;overflow:visible;visibility:visible;opacity:1;isolation:auto;mix-blend-mode:normal;color-interpolation:sRGB;color-interpolation-filters:linearRGB;solid-color:#000000;solid-opacity:1;fill:#e6e6e6;fill-opacity:1;fill-rule:nonzero;stroke:none;stroke-width:0.66299999;stroke-linecap:butt;stroke-linejoin:miter;stroke-miterlimit:4;stroke-dasharray:none;stroke-dashoffset:0;stroke-opacity:1;color-rendering:auto;image-rendering:auto;shape-rendering:auto;text-rendering:auto;enable-background:accumulate"
                   d="m -27.117188,-27.449219 c -15.156137,0 -27.451171,12.293067 -27.451171,27.449219 0,15.156152 12.295019,27.449219 27.451171,27.449219 15.155165,0 27.44921925,-12.293052 27.44921925,-27.449219 0,-15.156167 -12.29406925,-27.449219 -27.44921925,-27.449219 z m 0,0.664063 c 14.796851,0 26.78515675,11.987323 26.78515675,26.785156 0,14.797833 -11.98832075,26.787109 -26.78515675,26.787109 -14.797847,0 -26.787109,-11.989261 -26.787109,-26.787109 0,-14.797848 11.989247,-26.785156 26.787109,-26.785156 z"
                   id="path3105"
                   inkscape:connector-curvature="0" />
              </g>
              <g
                 transform="translate(379.606,280.584)"
                 id="g3107"
                 style="fill:#e6e6e6;fill-opacity:1">
                <path
                   id="path3109"
                   style="fill:#e6e6e6;fill-opacity:1;fill-rule:nonzero;stroke:none"
                   d="M 0,0 C 0.292,0.685 0.176,1.502 -0.585,2.086 -1.274,2.613 -1.935,2.6 -2.395,2.016 -3.402,0.733 0.191,-1.5 -1.264,-3.4 c -0.659,-0.86 -1.814,-1.368 -3.321,-0.211 -1.295,0.99 -1.163,2.215 -0.935,3.158 l 0.762,-0.244 c -0.24,-0.805 -0.237,-1.717 0.632,-2.383 0.868,-0.666 1.653,-0.539 2.118,0.068 1.155,1.506 -2.511,3.613 -1.08,5.481 0.653,0.851 1.881,0.977 2.945,0.161 C 0.775,1.928 1.126,0.891 0.69,-0.321 Z"
                   inkscape:connector-curvature="0" />
              </g>
              <g
                 transform="translate(382.7676,280.5469)"
                 id="g3111"
                 style="fill:#e6e6e6;fill-opacity:1">
                <path
                   id="path3113"
                   style="fill:#e6e6e6;fill-opacity:1;fill-rule:nonzero;stroke:none"
                   d="m 0,0 0.727,-0.294 -0.944,-6.031 0.019,-0.008 3.567,4.972 0.679,-0.276 -0.849,-6.069 0.019,-0.007 3.491,5.002 0.728,-0.294 -4.429,-6.249 -0.68,0.275 0.842,6.162 -0.019,0.007 -3.598,-5.047 -0.679,0.274 z"
                   inkscape:connector-curvature="0" />
              </g>
              <g
                 transform="translate(396.5708,276.8301)"
                 id="g3115"
                 style="fill:#e6e6e6;fill-opacity:1">
                <path
                   id="path3117"
                   style="fill:#e6e6e6;fill-opacity:1;fill-rule:nonzero;stroke:none"
                   d="m 0,0 -0.079,-0.697 -3.62,0.412 -0.282,-2.483 2.574,-0.292 -0.079,-0.697 -2.575,0.292 -0.322,-2.83 3.825,-0.435 -0.079,-0.698 -4.646,0.529 0.843,7.405 z"
                   inkscape:connector-curvature="0" />
              </g>
              <g
                 transform="translate(400.5938,270.2617)"
                 id="g3119"
                 style="fill:#e6e6e6;fill-opacity:1">
                <path
                   id="path3121"
                   style="fill:#e6e6e6;fill-opacity:1;fill-rule:nonzero;stroke:none"
                   d="M 0,0 1.106,0.143 C 2.807,0.36 3.557,1.487 3.303,3.475 3.025,5.635 1.893,6.343 0.378,6.148 L -0.77,6.002 Z M -1.678,6.593 0.309,6.848 C 2.316,7.104 3.811,6.006 4.121,3.579 4.4,1.408 3.428,-0.268 1.217,-0.551 l -1.946,-0.25 z"
                   inkscape:connector-curvature="0" />
              </g>
              <g
                 transform="translate(410.4746,279.7998)"
                 id="g3123"
                 style="fill:#e6e6e6;fill-opacity:1">
                <path
                   id="path3125"
                   style="fill:#e6e6e6;fill-opacity:1;fill-rule:nonzero;stroke:none"
                   d="m 0,0 0.255,-0.655 -3.396,-1.321 0.907,-2.328 2.414,0.94 0.254,-0.655 -2.414,-0.94 1.033,-2.654 3.588,1.396 0.254,-0.655 -4.357,-1.695 -2.702,6.945 z"
                   inkscape:connector-curvature="0" />
              </g>
              <g
                 transform="translate(416.957,274.8887)"
                 id="g3127"
                 style="fill:#e6e6e6;fill-opacity:1">
                <path
                   id="path3129"
                   style="fill:#e6e6e6;fill-opacity:1;fill-rule:nonzero;stroke:none"
                   d="M 0,0 -4.354,6.046 -3.39,6.739 2.602,3.982 2.635,4.008 -0.719,8.662 -0.115,9.098 4.238,3.051 3.686,2.652 -3.263,5.84 -3.279,5.826 0.604,0.434 Z"
                   inkscape:connector-curvature="0" />
              </g>
              <g
                 transform="translate(372.1948,286.0449)"
                 id="g3131"
                 style="fill:#e6e6e6;fill-opacity:1">
                <path
                   id="path3133"
                   style="fill:#e6e6e6;fill-opacity:1;fill-rule:nonzero;stroke:none"
                   d="m 0,0 c 0,-0.645 -0.523,-1.168 -1.17,-1.168 -0.644,0 -1.168,0.523 -1.168,1.168 0,0.646 0.524,1.17 1.168,1.17 C -0.523,1.17 0,0.646 0,0"
                   inkscape:connector-curvature="0" />
              </g>
              <g
                 transform="translate(425.2266,286.0449)"
                 id="g3135"
                 style="fill:#e6e6e6;fill-opacity:1">
                <path
                   id="path3137"
                   style="fill:#e6e6e6;fill-opacity:1;fill-rule:nonzero;stroke:none"
                   d="m 0,0 c 0,-0.645 -0.524,-1.168 -1.171,-1.168 -0.645,0 -1.169,0.523 -1.169,1.168 0,0.646 0.524,1.17 1.169,1.17 C -0.524,1.17 0,0.646 0,0"
                   inkscape:connector-curvature="0" />
              </g>
            </g>
          </g>
        </g>
      </g>
    </g>
    <g
       aria-label="No picture yet, sorry."
       style="font-style:normal;font-variant:normal;font-weight:normal;font-stretch:normal;font-size:25.39999962px;line-height:1.25;font-family:Oswald;-inkscape-font-specification:Oswald;font-variant-ligatures:normal;font-variant-caps:normal;font-variant-numeric:normal;font-feature-settings:normal;text-align:end;letter-spacing:0px;word-spacing:0px;writing-mode:lr-tb;text-anchor:end;fill:#646464;fill-opacity:1;stroke:none;stroke-width:0.26458332"
       id="text1015">
      <path
         d="m 55.404442,204.87399 v -20.574 h 1.9558 l 5.842,13.6652 v -13.6652 h 2.3876 v 20.574 h -1.8288 l -5.9182,-14.0462 v 14.0462 z"
         style="fill:#646464;fill-opacity:1;stroke-width:0.26458332"
         id="path1023" />
      <path
         d="m 72.608973,205.07719 q -1.6256,0 -2.5654,-0.6604 -0.9398,-0.6604 -1.3462,-1.8796 -0.381,-1.2192 -0.381,-2.8702 v -4.2672 q 0,-1.651 0.381,-2.8702 0.4064,-1.2192 1.3462,-1.8796 0.9398,-0.6604 2.5654,-0.6604 1.6256,0 2.54,0.6604 0.9398,0.6604 1.3208,1.8796 0.4064,1.2192 0.4064,2.8702 v 4.2672 q 0,1.651 -0.4064,2.8702 -0.381,1.2192 -1.3208,1.8796 -0.9144,0.6604 -2.54,0.6604 z m 0,-2.0066 q 0.7874,0 1.0922,-0.4572 0.3302,-0.4572 0.381,-1.1938 0.0762,-0.762 0.0762,-1.5748 v -4.5974 q 0,-0.8382 -0.0762,-1.5748 -0.0508,-0.7366 -0.381,-1.1938 -0.3048,-0.4826 -1.0922,-0.4826 -0.7874,0 -1.1176,0.4826 -0.3302,0.4572 -0.4064,1.1938 -0.0508,0.7366 -0.0508,1.5748 v 4.5974 q 0,0.8128 0.0508,1.5748 0.0762,0.7366 0.4064,1.1938 0.3302,0.4572 1.1176,0.4572 z"
         style="fill:#646464;fill-opacity:1;stroke-width:0.26458332"
         id="path1025" />
      <path
         d="m 85.189514,209.69999 v -19.5072 h 2.7178 v 1.1684 q 0.4826,-0.5588 1.1684,-0.9652 0.6858,-0.4064 1.6256,-0.4064 1.143,0 1.8034,0.6096 0.6858,0.5842 1.015999,1.4986 0.3302,0.889 0.4318,1.8288 0.1016,0.9144 0.1016,1.5748 v 3.556 q 0,1.5494 -0.3048,2.9464 -0.3048,1.3716 -1.117599,2.2352 -0.7874,0.8382 -2.2352,0.8382 -0.7874,0 -1.397,-0.381 -0.6096,-0.4064 -1.0922,-0.9144 v 5.9182 z m 4.6736,-6.7564 q 0.7112,0 1.016,-0.508 0.3048,-0.5334 0.381,-1.4224 0.0762,-0.889 0.0762,-1.9558 v -3.556 q 0,-0.9144 -0.1016,-1.6764 -0.1016,-0.7874 -0.4318,-1.2446 -0.3302,-0.4572 -1.0414,-0.4572 -0.5334,0 -1.016,0.2286 -0.4826,0.2286 -0.8382,0.5334 v 9.398 q 0.381,0.2794 0.8636,0.4826 0.4826,0.1778 1.0922,0.1778 z"
         style="fill:#646464;fill-opacity:1;stroke-width:0.26458332"
         id="path1027" />
      <path
         d="m 96.67825,204.87399 v -14.6812 h 2.7178 v 14.6812 z m 0,-16.8656 v -2.8448 h 2.7178 v 2.8448 z"
         style="fill:#646464;fill-opacity:1;stroke-width:0.26458332"
         id="path1029" />
      <path
         d="m 106.31795,205.07719 q -1.8034,0 -2.7432,-0.7112 -0.9144,-0.7366 -1.2446,-2.0574 -0.3048,-1.3208 -0.3048,-3.0734 v -3.3782 q 0,-1.8542 0.3302,-3.1496 0.3302,-1.3208 1.2446,-2.0066 0.9398,-0.7112 2.7178,-0.7112 1.6002,0 2.4638,0.5334 0.889,0.508 1.2192,1.5494 0.3302,1.016 0.3302,2.54 v 0.8636 h -2.4638 v -0.889 q 0,-0.9652 -0.127,-1.524 -0.127,-0.5588 -0.4572,-0.8128 -0.3302,-0.254 -0.9398,-0.254 -0.6604,0 -1.016,0.3048 -0.3556,0.3048 -0.4826,1.0414 -0.1016,0.7112 -0.1016,1.9558 v 4.6228 q 0,1.8796 0.3556,2.5146 0.3556,0.635 1.27,0.635 0.6858,0 0.9906,-0.3048 0.3302,-0.3302 0.4064,-0.9144 0.1016,-0.5842 0.1016,-1.3208 v -1.1938 h 2.4638 v 1.016 q 0,1.4732 -0.3556,2.54 -0.3302,1.0668 -1.2192,1.6256 -0.8636,0.5588 -2.4384,0.5588 z"
         style="fill:#646464;fill-opacity:1;stroke-width:0.26458332"
         id="path1031" />
      <path
         d="m 116.63432,205.07719 q -1.143,0 -1.8542,-0.4318 -0.6858,-0.4318 -1.016,-1.2192 -0.3048,-0.7874 -0.3048,-1.8542 v -9.5758 h -1.5494 v -1.8034 h 1.5494 v -4.2926 h 2.7178 v 4.2926 h 2.3622 v 1.8034 h -2.3622 v 9.398 q 0,0.8636 0.2794,1.2446 0.2794,0.3556 1.0668,0.3556 0.2032,0 0.4572,-0.0254 0.2794,-0.0254 0.5334,-0.0508 v 2.0066 q -0.508,0.0762 -0.9398,0.1016 -0.4318,0.0508 -0.9398,0.0508 z"
         style="fill:#646464;fill-opacity:1;stroke-width:0.26458332"
         id="path1033" />
      <path
         d="m 122.6692,205.07719 q -0.8636,0 -1.3462,-0.4572 -0.4826,-0.4572 -0.6858,-1.143 -0.1778,-0.6858 -0.1778,-1.397 v -11.8872 h 2.7178 v 11.0744 q 0,0.7874 0.2286,1.2446 0.2286,0.4318 0.9398,0.4318 0.4572,0 0.9398,-0.254 0.508,-0.2794 0.9652,-0.6604 v -11.8364 h 2.7178 v 14.6812 h -2.7178 v -1.4478 q -0.7112,0.6858 -1.6256,1.1684 -0.889,0.4826 -1.9558,0.4826 z"
         style="fill:#646464;fill-opacity:1;stroke-width:0.26458332"
         id="path1035" />
      <path
         d="m 131.79931,204.87399 v -14.6812 h 2.7178 v 2.0828 q 0.8128,-1.3462 1.6256,-1.8034 0.8128,-0.4572 1.6256,-0.4572 0.1016,0 0.1778,0 0.1016,0 0.254,0.0254 v 2.9972 q -0.3048,-0.127 -0.7112,-0.2032 -0.381,-0.1016 -0.7874,-0.1016 -0.635,0 -1.1684,0.3048 -0.508,0.2794 -1.016,1.1176 v 10.7188 z"
         style="fill:#646464;fill-opacity:1;stroke-width:0.26458332"
         id="path1037" />
      <path
         d="m 143.92305,205.07719 q -1.7272,0 -2.667,-0.6604 -0.9398,-0.6858 -1.3208,-1.9812 -0.3556,-1.3208 -0.3556,-3.2258 v -3.3528 q 0,-1.9558 0.381,-3.2512 0.381,-1.2954 1.3208,-1.9558 0.9652,-0.6604 2.6416,-0.6604 1.8542,0 2.7178,0.762 0.889,0.762 1.1684,2.2098 0.2794,1.4224 0.2794,3.429 v 1.1938 h -5.7912 v 2.9464 q 0,0.889 0.1524,1.4478 0.1778,0.5588 0.5334,0.8382 0.381,0.254 0.9652,0.254 0.6096,0 0.9144,-0.2794 0.3302,-0.3048 0.4318,-0.8382 0.127,-0.5588 0.127,-1.2954 v -0.889 h 2.6416 v 0.5588 q 0,2.2098 -0.9398,3.4798 -0.9398,1.27 -3.2004,1.27 z m -1.6256,-8.9662 h 3.1242 v -1.3208 q 0,-0.9144 -0.1016,-1.524 -0.1016,-0.635 -0.4318,-0.9398 -0.3048,-0.3302 -0.9906,-0.3302 -0.6604,0 -1.016,0.3048 -0.3302,0.3048 -0.4572,1.0414 -0.127,0.7112 -0.127,1.9812 z"
         style="fill:#646464;fill-opacity:1;stroke-width:0.26458332"
         id="path1039" />
      <path
         d="m 156.15037,208.55699 v -2.0828 q 0.9906,0 1.5748,-0.1016 0.5842,-0.0762 0.8382,-0.3302 0.254,-0.2286 0.254,-0.6604 0,-0.2286 -0.1778,-1.016 -0.1778,-0.7874 -0.381,-1.6764 l -2.9464,-12.4968 h 2.7432 l 1.9812,10.9728 1.905,-10.9728 h 2.7432 l -3.5052,15.494 q -0.2286,1.0668 -0.8382,1.6764 -0.6096,0.635 -1.5748,0.9144 -0.9398,0.2794 -2.286,0.2794 z"
         style="fill:#646464;fill-opacity:1;stroke-width:0.26458332"
         id="path1041" />
      <path
         d="m 170.41445,205.07719 q -1.7272,0 -2.667,-0.6604 -0.9398,-0.6858 -1.3208,-1.9812 -0.3556,-1.3208 -0.3556,-3.2258 v -3.3528 q 0,-1.9558 0.381,-3.2512 0.381,-1.2954 1.3208,-1.9558 0.9652,-0.6604 2.6416,-0.6604 1.8542,0 2.7178,0.762 0.889,0.762 1.1684,2.2098 0.2794,1.4224 0.2794,3.429 v 1.1938 h -5.7912 v 2.9464 q 0,0.889 0.1524,1.4478 0.1778,0.5588 0.5334,0.8382 0.381,0.254 0.9652,0.254 0.6096,0 0.9144,-0.2794 0.3302,-0.3048 0.4318,-0.8382 0.127,-0.5588 0.127,-1.2954 v -0.889 h 2.6416 v 0.5588 q 0,2.2098 -0.9398,3.4798 -0.9398,1.27 -3.2004,1.27 z m -1.6256,-8.9662 h 3.1242 v -1.3208 q 0,-0.9144 -0.1016,-1.524 -0.1016,-0.635 -0.4318,-0.9398 -0.3048,-0.3302 -0.9906,-0.3302 -0.6604,0 -1.016,0.3048 -0.3302,0.3048 -0.4572,1.0414 -0.127,0.7112 -0.127,1.9812 z"
         style="fill:#646464;fill-opacity:1;stroke-width:0.26458332"
         id="path1043" />
      <path
         d="m 180.97768,205.07719 q -1.143,0 -1.8542,-0.4318 -0.6858,-0.4318 -1.016,-1.2192 -0.3048,-0.7874 -0.3048,-1.8542 v -9.5758 h -1.5494 v -1.8034 h 1.5494 v -4.2926 h 2.7178 v 4.2926 h 2.3622 v 1.8034 h -2.3622 v 9.398 q 0,0.8636 0.2794,1.2446 0.2794,0.3556 1.0668,0.3556 0.2032,0 0.4572,-0.0254 0.2794,-0.0254 0.5334,-0.0508 v 2.0066 q -0.508,0.0762 -0.9398,0.1016 -0.4318,0.0508 -0.9398,0.0508 z"
         style="fill:#646464;fill-opacity:1;stroke-width:0.26458332"
         id="path1045" />
      <path
         d="m 184.98056,208.20139 -0.4318,-1.1684 q 0.6858,-0.2286 1.0668,-0.8128 0.4064,-0.5588 0.4064,-1.3462 h -1.4478 v -2.921 h 2.794 v 2.8702 q 0,1.3462 -0.5842,2.1336 -0.5842,0.8128 -1.8034,1.2446 z"
         style="fill:#646464;fill-opacity:1;stroke-width:0.26458332"
         id="path1047" />
      <path
         d="m 198.87476,205.07719 q -1.8034,0 -2.8956,-1.1176 -1.0922,-1.143 -1.2446,-2.9972 l 2.2606,-0.6858 q 0.2032,1.397 0.6858,2.1082 0.4826,0.6858 1.4224,0.6858 0.7366,0 1.1176,-0.4064 0.381,-0.4318 0.381,-1.143 0,-0.635 -0.2794,-1.143 -0.2794,-0.508 -0.9144,-1.0414 l -2.5146,-2.159 q -0.762,-0.6604 -1.2954,-1.4732 -0.508,-0.8128 -0.508,-2.1082 0,-1.1684 0.4572,-1.9558 0.4826,-0.8128 1.3208,-1.2192 0.8636,-0.4318 2.0066,-0.4318 1.7526,0 2.667,1.143 0.9398,1.1176 1.0668,2.7178 l -1.8288,0.6858 q -0.1016,-0.762 -0.3048,-1.3208 -0.2032,-0.5842 -0.5588,-0.889 -0.3556,-0.3302 -0.9398,-0.3302 -0.6604,0 -1.0668,0.4572 -0.381,0.4318 -0.381,1.0414 0,0.381 0.1524,0.762 0.1778,0.3556 0.5842,0.7112 l 2.5908,2.3876 q 0.5334,0.4826 0.9906,1.0414 0.4826,0.5588 0.7874,1.27 0.3048,0.7112 0.3048,1.651 0,1.2446 -0.508,2.0828 -0.508,0.8382 -1.4224,1.27 -0.9144,0.4064 -2.1336,0.4064 z"
         style="fill:#646464;fill-opacity:1;stroke-width:0.26458332"
         id="path1049" />
      <path
         d="m 208.98515,205.07719 q -1.6256,0 -2.5654,-0.6604 -0.9398,-0.6604 -1.3462,-1.8796 -0.381,-1.2192 -0.381,-2.8702 v -4.2672 q 0,-1.651 0.381,-2.8702 0.4064,-1.2192 1.3462,-1.8796 0.9398,-0.6604 2.5654,-0.6604 1.6256,0 2.54,0.6604 0.9398,0.6604 1.3208,1.8796 0.4064,1.2192 0.4064,2.8702 v 4.2672 q 0,1.651 -0.4064,2.8702 -0.381,1.2192 -1.3208,1.8796 -0.9144,0.6604 -2.54,0.6604 z m 0,-2.0066 q 0.7874,0 1.0922,-0.4572 0.3302,-0.4572 0.381,-1.1938 0.0762,-0.762 0.0762,-1.5748 v -4.5974 q 0,-0.8382 -0.0762,-1.5748 -0.0508,-0.7366 -0.381,-1.1938 -0.3048,-0.4826 -1.0922,-0.4826 -0.7874,0 -1.1176,0.4826 -0.3302,0.4572 -0.4064,1.1938 -0.0508,0.7366 -0.0508,1.5748 v 4.5974 q 0,0.8128 0.0508,1.5748 0.0762,0.7366 0.4064,1.1938 0.3302,0.4572 1.1176,0.4572 z"
         style="fill:#646464;fill-opacity:1;stroke-width:0.26458332"
         id="path1051" />
      <path
         d="m 215.83758,204.87399 v -14.6812 h 2.7178 v 2.0828 q 0.8128,-1.3462 1.6256,-1.8034 0.8128,-0.4572 1.6256,-0.4572 0.1016,0 0.1778,0 0.1016,0 0.254,0.0254 v 2.9972 q -0.3048,-0.127 -0.7112,-0.2032 -0.381,-0.1016 -0.7874,-0.1016 -0.635,0 -1.1684,0.3048 -0.508,0.2794 -1.016,1.1176 v 10.7188 z"
         style="fill:#646464;fill-opacity:1;stroke-width:0.26458332"
         id="path1053" />
      <path
         d="m 223.97352,204.87399 v -14.6812 h 2.7178 v 2.0828 q 0.8128,-1.3462 1.6256,-1.8034 0.8128,-0.4572 1.6256,-0.4572 0.1016,0 0.1778,0 0.1016,0 0.254,0.0254 v 2.9972 q -0.3048,-0.127 -0.7112,-0.2032 -0.381,-0.1016 -0.7874,-0.1016 -0.635,0 -1.1684,0.3048 -0.508,0.2794 -1.016,1.1176 v 10.7188 z"
         style="fill:#646464;fill-opacity:1;stroke-width:0.26458332"
         id="path1055" />
      <path
         d="m 231.80466,208.55699 v -2.0828 q 0.9906,0 1.5748,-0.1016 0.5842,-0.0762 0.8382,-0.3302 0.254,-0.2286 0.254,-0.6604 0,-0.2286 -0.1778,-1.016 -0.1778,-0.7874 -0.381,-1.6764 l -2.9464,-12.4968 h 2.7432 l 1.9812,10.9728 1.905,-10.9728 h 2.7432 l -3.5052,15.494 q -0.2286,1.0668 -0.8382,1.6764 -0.6096,0.635 -1.5748,0.9144 -0.9398,0.2794 -2.286,0.2794 z"
         style="fill:#646464;fill-opacity:1;stroke-width:0.26458332"
         id="path1057" />
      <path
         d="m 241.87774,204.87399 v -3.0226 h 2.7178 v 3.0226 z"
         style="fill:#646464;fill-opacity:1;stroke-width:0.26458332"
         id="path1059" />
    </g>
  </g>
</svg>
